<svg xmlns="http://www.w3.org/2000/svg" xmlns:xlink="http://www.w3.org/1999/xlink" version="1.1" x="0px" y="0px" viewBox="1 -1 100 125" style="enable-background:new 1 -1 100 100;" xml:space="preserve"><g><path d="M64.1,18.8V7.5H36.8v11.3H12.4v4.1h7.2l5.2,67.7h51.4l5.2-67.7h8.3v-4.1H64.1z M60.1,11.5v7.2H40.9v-7.2H60.1z M77.3,22.7   l-4.9,63.6H28.5l-4.8-63.6H77.3z"/><rect x="48.4" y="33.6" width="4.1" height="42.3"/><rect x="60.8" y="33.5" transform="matrix(0.9985 5.410133e-02 -5.410133e-02 0.9985 3.0528 -3.3204)" width="4.1" height="42.4"/><rect x="16.8" y="52.7" transform="matrix(5.408551e-02 0.9985 -0.9985 5.408551e-02 90.6164 13.8133)" width="42.4" height="4.1"/></g><text x="1" y="114" fill="#000000" font-size="5px" font-weight="bold" font-family="'Helvetica Neue', Helvetica, Arial-Unicode, Arial, Sans-serif">Created by Fantastic</text><text x="1" y="119" fill="#000000" font-size="5px" font-weight="bold" font-family="'Helvetica Neue', Helvetica, Arial-Unicode, Arial, Sans-serif">from the Noun Project</text></svg>